<?xml version="1.0" encoding="UTF-8"?>
<svg id="Layer_2" data-name="Layer 2" xmlns="http://www.w3.org/2000/svg" viewBox="0 0 694.52 306.86">
  <g id="Layer_2-2" data-name="Layer 2">
    <g id="STANDARD_UPDATE" data-name="STANDARD UPDATE">
      <g>
        <g>
          <path d="M274.21,95.28c.84-14.02-5.07-24.23-17.21-31.2-33.53-19.23-67.12-38.34-100.41-57.98-13.81-8.15-26.72-8.42-39.78.89-8.84,6.53-11.99,15.54-11.48,26.15.29,6.05,3.08,11.23,5.83,16.41,6.28,10.06,11.94,20.47,17.86,30.73,3.76,6.26,7.23,12.68,11.09,18.89,2.57,4.14,4.21,8.87,7.85,12.32,2.03.21,3.51-1.03,5.1-1.95,14.15-8.16,28.3-16.33,42.46-24.46,4.5-2.58,6.46-1.89,9.11,2.45,2.91,4.76,4.9,10.02,8.19,14.55,2.45,4.26,4.9,8.53,7.49,12.71,3.27,5.28,5.49,11.2,9.71,15.88.09,0,.17.02.24.02-.39,2.01,1.12,3.37,1.89,4.97,6.7,10.88,13.02,21.98,19.13,33.2,2.34,4.33,5.06,8.45,7.3,12.85,2.58,4.01,4.72,8.27,7.24,12.31.81,1.03,1.35,2.24,2.13,3.27,2.87,3.82,3.44,8.64,5.67,12.73.17.15.38.24.61.28.04-11.54.13-23.08.11-34.63-.02-26.8-.09-53.6-.15-80.4h.02Z" style="fill: #21204c;"/>
          <path d="M167.38,266.32c-2.08-5.78-21.77-38.63-25-44.64-.8-1.16-1.18-2.86-3.02-2.67-.03-.08-.06-.16-.09-.24-.03-3.42-8.08-17.59-11.28-19.92.29-1.39-.79-3.95-1.8-4.6-2.81-.9-4.81,2.79-6.97,3.96-10.53,5.68-20.42,12.47-31.1,17.88-5.41,2.74-6.77,4.36-13.5,3.7,0,0-2.26.72-2.26.72,0-1.65-1.71-.63-2.52-2.02-7.87-13.49-15.63-27.04-23.53-40.52-8.08-14.25-16.33-28.38-24.59-42.51-5.68-10.52-12.22-20.56-17.67-31.21-.81-1.52-1.24-3.17-1.79-4.79-.41-1.2-.13-2.99-2.12-3.18-.05,1.2-.13,2.39-.13,3.58C0,137.97-.01,176.09.05,214.21c.02,11.85,5.3,20.89,15.43,27,5.68,3.43,11.5,6.63,17.25,9.92h0c3.36,1.87,6.71,3.75,10.07,5.62h0c8.43,5.39,17.13,10.34,25.92,15.12,18.01,10.39,35.85,21.1,54.1,31.05,11.52,6.27,23.01,4.91,33.54-3.15,2.74-1.82,5.42-3.67,7.24-6.57,5.3-8.42,6.62-17.36,3.77-26.9v.02Z" style="fill: #21204c;"/>
          <path d="M111.59,133.69c12.11-7.19,24.52-13.85,36.42-21.39.22-.35.25-.72.13-1.1-6.09-10.4-12.17-20.8-18.27-31.22-5.79-9.89-11.64-19.74-17.16-29.77-5.28-9.58-8.21-18.91-4.71-29.73,1.71-5.32,5.34-9.35,8.82-13.49-.83.41-1.7.76-2.51,1.23C82.09,26.81,49.91,45.44,17.66,63.96,5.09,71.18-.87,81.79.14,96.27c1.09,2.07,1.16,4.39,2.19,6.49,1.23,2.48,2.49,4.95,3.8,7.38,7.09,13.26,15.05,26.1,22.64,39.08,5.58,9.63,10.68,19.82,16.85,29.08,5.59,9.75,18.97,31.97,23.4,41.03,1.85,3.78,6.5,5.69,10.13,3.56.03-.02,24.25-14.15,36.42-21.04,3.41-1.93,7.01-4.13,11.15-5.56.53-.42.13-.95,0-1.56-.45-1.42-1.27-2.63-1.99-3.9-9.06-15.91-18.41-31.66-27.46-47.59.07-.18.16-.37.27-.56,4.05-3.97,9.28-6.14,14.06-8.98h0Z" style="fill: #17bbfd;"/>
          <path d="M274.14,210.34c-.08-.47-.19-.94-.31-1.4-.38-1.46-.86-2.78-1.57-4.07-.42-.78-.86-1.56-1.28-2.34-1.33-2.41-2.66-4.83-3.98-7.24-1.65-3-35.82-63.35-36.66-64.88-5.6-9.59-11.19-19.19-16.79-28.79-2.76-4.94-5.5-9.88-8.28-14.81-3.07-5.41-4.75-5.83-10.17-2.71-15.65,9.03-31.32,18.07-46.97,27.1,0,.15-.04.29-.13.41,1.91,5.93,5.64,10.86,8.81,16.1.2.34.58.47.98.53-.17,1.33.47,2.41,1.1,3.51,2.04,3.55,3.92,7.2,6.15,10.63,3.58,5.53,6.01,11.76,10.35,16.82.2.21.4.41.61.59,1.16,4.85-2.23,7.05-6.24,9.27-11.35,6.33-22.62,12.82-33.79,19.47-3.35,1.99-7.42,3.04-9.7,6.62,0,.39,0,.79-.02,1.19.56.92,1.12,1.85,1.68,2.77,4.04,6.41,35.75,61.9,38.48,67.08,3.45,13.23.27,24.49-10.05,33.63,1.33.16,2.23-.75,3.23-1.33,32.29-18.61,64.47-37.43,96.92-55.77,4.11-2.33,7.92-5.28,10.88-8.98,2.73-3.41,4.65-7.4,5.72-11.63.42-1.66.71-3.34.9-5.04.22-2.05.45-4.25.18-6.3-.02-.13-.04-.27-.06-.4v-.02Z" style="fill: #2ed673;"/>
          <path d="M175.6,158.47c2.92,5.87,2.67,6.77-3.02,10.05-15.43,8.88-30.88,18.93-46.32,27.8-9.51-16.16-19-33.5-28.49-49.68-.74-1.26-1.12-2.67-.94-4.17.96-1.43,2.06-2.63,3.62-3.53,15.87-9.07,31.69-18.21,47.54-27.33,3.41,5.55,6.82,11.1,10.23,16.65,5.79,10.06,11.58,20.14,17.38,30.2h0Z" style="fill: #fefefe;"/>
          <path d="M137.65,141.41c6.07-.05,10.99,4.72,11.02,10.69.03,6-4.79,10.91-10.8,10.98-6.08.07-10.9-4.67-10.94-10.74-.04-6.2,4.54-10.87,10.7-10.92h0Z" style="fill: #21204c;"/>
          <path d="M137.79,159.15c-3.91.02-7.09-3.12-7.09-7.01s3.04-6.77,6.82-6.9c4.01-.13,7.13,2.83,7.22,6.83.08,3.95-2.96,7.05-6.95,7.08h0Z" style="fill: #fdfdfd;"/>
        </g>
        <g>
          <path d="M362.05,221.54l50.62-74.22-45.1-64.51h34.82l29.12,45.3h.76l29.12-45.3h34.82l-44.53,64.32,50.62,74.41h-35.21l-34.82-53.1h-.76l-35.02,53.1h-34.45.02Z" style="fill: #21204c;"/>
          <path d="M549.5,223.45c-10.65,0-19.7-2.19-27.12-6.57s-13.1-10.47-17.03-18.27c-3.93-7.8-5.9-16.9-5.9-27.31,0-11.04,2-20.55,5.99-28.55s9.64-14.18,16.94-18.56c7.3-4.38,15.95-6.57,25.98-6.57,11.54,0,21.06,2.54,28.55,7.61,7.49,5.08,12.88,12.05,16.17,20.93,3.29,8.88,4.38,19.03,3.23,30.45h-69.46c0,8.5,2.06,14.91,6.19,19.22,4.12,4.32,9.61,6.47,16.46,6.47,5.2,0,9.58-1.2,13.13-3.62,3.55-2.41,5.83-5.58,6.85-9.51h26.26c-.76,6.98-3.23,13.04-7.42,18.17-4.18,5.13-9.61,9.11-16.27,11.9s-14.18,4.18-22.55,4.18h0ZM548.36,138.57c-6.09,0-11.04,1.81-14.84,5.43-3.81,3.62-5.97,8.73-6.47,15.32h41.87c-.26-6.97-2.26-12.18-5.99-15.61-3.74-3.43-8.59-5.13-14.56-5.13h0Z" style="fill: #21204c;"/>
          <path d="M614.58,221.54V82.8h27.98v138.74h-27.98Z" style="fill: #21204c;"/>
          <path d="M666.54,221.54V82.8h27.98v138.74h-27.98Z" style="fill: #21204c;"/>
        </g>
      </g>
    </g>
  </g>
</svg>